<mxfile host="65bd71144e">
    <diagram id="kgpKYQtTHZ0yAKxKKP6v" name="Page-1">
        <mxGraphModel dx="1697" dy="769" grid="0" gridSize="10" guides="1" tooltips="1" connect="1" arrows="1" fold="1" page="1" pageScale="1" pageWidth="850" pageHeight="1100" math="0" shadow="0">
            <root>
                <mxCell id="0"/>
                <mxCell id="1" parent="0"/>
                <mxCell id="3nuBFxr9cyL0pnOWT2aG-6" value="" style="points=[];perimeter=orthogonalPerimeter;rounded=0;shadow=0;strokeWidth=1;" parent="1" vertex="1">
                    <mxGeometry x="290" y="372" width="10" height="248" as="geometry"/>
                </mxCell>
                <mxCell id="3nuBFxr9cyL0pnOWT2aG-5" value="Provider" style="shape=umlLifeline;perimeter=lifelinePerimeter;container=1;collapsible=0;recursiveResize=0;rounded=0;shadow=0;strokeWidth=1;fillColor=#dae8fc;strokeColor=#6c8ebf;" parent="1" vertex="1">
                    <mxGeometry x="237.5" y="80" width="115" height="288" as="geometry"/>
                </mxCell>
                <mxCell id="eunGYBZojGxnAnl-epNE-7" value="Payer AEOB&#10;Processor" style="shape=umlLifeline;perimeter=lifelinePerimeter;container=1;collapsible=0;recursiveResize=0;rounded=0;shadow=0;strokeWidth=1;fillColor=#f8cecc;strokeColor=#b85450;" parent="1" vertex="1">
                    <mxGeometry x="505" y="80" width="100" height="443" as="geometry"/>
                </mxCell>
                <mxCell id="eunGYBZojGxnAnl-epNE-8" value="" style="points=[];perimeter=orthogonalPerimeter;rounded=0;shadow=0;strokeWidth=1;" parent="1" vertex="1">
                    <mxGeometry x="550" y="133" width="10" height="487" as="geometry"/>
                </mxCell>
                <mxCell id="3nuBFxr9cyL0pnOWT2aG-1" value="Patient" style="shape=umlLifeline;perimeter=lifelinePerimeter;container=1;collapsible=0;recursiveResize=0;rounded=0;shadow=0;strokeWidth=1;fillColor=#d5e8d4;strokeColor=#82b366;" parent="1" vertex="1">
                    <mxGeometry x="119" y="80" width="100" height="264" as="geometry"/>
                </mxCell>
                <mxCell id="3nuBFxr9cyL0pnOWT2aG-2" value="" style="points=[];perimeter=orthogonalPerimeter;rounded=0;shadow=0;strokeWidth=1;" parent="3nuBFxr9cyL0pnOWT2aG-1" vertex="1">
                    <mxGeometry x="45" y="71" width="10" height="188" as="geometry"/>
                </mxCell>
                <mxCell id="eunGYBZojGxnAnl-epNE-26" value="" style="verticalAlign=bottom;endArrow=block;shadow=0;strokeWidth=1;" parent="1" edge="1">
                    <mxGeometry relative="1" as="geometry">
                        <mxPoint x="177" y="289" as="sourcePoint"/>
                        <mxPoint x="547" y="289" as="targetPoint"/>
                    </mxGeometry>
                </mxCell>
                <mxCell id="eunGYBZojGxnAnl-epNE-40" value="Get AEOB using AEOBResponseID and token" style="text;html=1;resizable=0;autosize=1;align=center;verticalAlign=middle;points=[];fillColor=none;strokeColor=none;rounded=0;fontSize=10;" parent="1" vertex="1">
                    <mxGeometry x="253" y="270" width="215" height="16" as="geometry"/>
                </mxCell>
                <mxCell id="eunGYBZojGxnAnl-epNE-47" value="Access Token" style="verticalAlign=bottom;endArrow=block;entryX=0.9;entryY=0.391;shadow=0;strokeWidth=1;fontSize=11;entryDx=0;entryDy=0;entryPerimeter=0;" parent="1" source="eunGYBZojGxnAnl-epNE-70" target="3nuBFxr9cyL0pnOWT2aG-6" edge="1">
                    <mxGeometry x="-0.0476" relative="1" as="geometry">
                        <mxPoint x="409" y="463" as="sourcePoint"/>
                        <mxPoint x="304" y="463" as="targetPoint"/>
                        <mxPoint as="offset"/>
                    </mxGeometry>
                </mxCell>
                <mxCell id="eunGYBZojGxnAnl-epNE-50" value="Completed AEOB Bundle" style="verticalAlign=bottom;endArrow=block;shadow=0;strokeWidth=1;fontSize=10;" parent="1" edge="1">
                    <mxGeometry relative="1" as="geometry">
                        <mxPoint x="550" y="566" as="sourcePoint"/>
                        <mxPoint x="303" y="566" as="targetPoint"/>
                    </mxGeometry>
                </mxCell>
                <mxCell id="eunGYBZojGxnAnl-epNE-16" value="&lt;font style=&quot;font-size: 10px&quot;&gt;AEOB Bundle complete&lt;/font&gt;" style="rounded=0;whiteSpace=wrap;html=1;" parent="1" vertex="1">
                    <mxGeometry x="505" y="146" width="110" height="17" as="geometry"/>
                </mxCell>
                <mxCell id="eunGYBZojGxnAnl-epNE-69" value="AEOB Completed Notification" style="verticalAlign=bottom;endArrow=block;shadow=0;strokeWidth=1;fontSize=10;labelBackgroundColor=#FFFFFF;exitX=0;exitY=0.086;exitDx=0;exitDy=0;exitPerimeter=0;" parent="1" source="eunGYBZojGxnAnl-epNE-8" edge="1">
                    <mxGeometry x="0.0161" relative="1" as="geometry">
                        <mxPoint x="545" y="174" as="sourcePoint"/>
                        <mxPoint x="178" y="174" as="targetPoint"/>
                        <mxPoint as="offset"/>
                    </mxGeometry>
                </mxCell>
                <mxCell id="eunGYBZojGxnAnl-epNE-70" value="Auth server" style="shape=umlLifeline;perimeter=lifelinePerimeter;container=1;collapsible=0;recursiveResize=0;rounded=0;shadow=0;strokeWidth=1;fillColor=#f8cecc;strokeColor=#b85450;" parent="1" vertex="1">
                    <mxGeometry x="377" y="80" width="100" height="399" as="geometry"/>
                </mxCell>
                <mxCell id="eunGYBZojGxnAnl-epNE-71" value="" style="points=[];perimeter=orthogonalPerimeter;rounded=0;shadow=0;strokeWidth=1;" parent="1" vertex="1">
                    <mxGeometry x="421" y="186.5" width="10" height="66.5" as="geometry"/>
                </mxCell>
                <mxCell id="eunGYBZojGxnAnl-epNE-72" value="Auth" style="verticalAlign=bottom;endArrow=block;entryX=-0.2;entryY=0.338;shadow=0;strokeWidth=1;entryDx=0;entryDy=0;entryPerimeter=0;labelBackgroundColor=#FFFFFF;" parent="1" target="eunGYBZojGxnAnl-epNE-71" edge="1">
                    <mxGeometry x="0.0203" y="1" relative="1" as="geometry">
                        <mxPoint x="177" y="209" as="sourcePoint"/>
                        <mxPoint x="281" y="210.0000000000001" as="targetPoint"/>
                        <mxPoint as="offset"/>
                    </mxGeometry>
                </mxCell>
                <mxCell id="eunGYBZojGxnAnl-epNE-74" value="Access Token" style="verticalAlign=bottom;endArrow=block;shadow=0;strokeWidth=1;fontSize=11;labelBackgroundColor=#FFFFFF;" parent="1" edge="1">
                    <mxGeometry x="-0.05" relative="1" as="geometry">
                        <mxPoint x="418" y="244" as="sourcePoint"/>
                        <mxPoint x="178" y="244" as="targetPoint"/>
                        <mxPoint as="offset"/>
                    </mxGeometry>
                </mxCell>
                <mxCell id="eunGYBZojGxnAnl-epNE-76" value="Completed AEOB Bundle" style="verticalAlign=bottom;endArrow=block;shadow=0;strokeWidth=1;fontSize=10;" parent="1" edge="1">
                    <mxGeometry relative="1" as="geometry">
                        <mxPoint x="549" y="316" as="sourcePoint"/>
                        <mxPoint x="176.5" y="316" as="targetPoint"/>
                    </mxGeometry>
                </mxCell>
                <mxCell id="eunGYBZojGxnAnl-epNE-79" value="AEOB Completed Notification" style="verticalAlign=bottom;endArrow=block;shadow=0;strokeWidth=1;fontSize=10;" parent="1" edge="1">
                    <mxGeometry relative="1" as="geometry">
                        <mxPoint x="547" y="383" as="sourcePoint"/>
                        <mxPoint x="301" y="383" as="targetPoint"/>
                    </mxGeometry>
                </mxCell>
                <mxCell id="eunGYBZojGxnAnl-epNE-81" value="" style="points=[];perimeter=orthogonalPerimeter;rounded=0;shadow=0;strokeWidth=1;" parent="1" vertex="1">
                    <mxGeometry x="422" y="412" width="10" height="66.5" as="geometry"/>
                </mxCell>
                <mxCell id="eunGYBZojGxnAnl-epNE-82" value="Auth" style="verticalAlign=bottom;endArrow=block;entryX=0.1;entryY=0.271;shadow=0;strokeWidth=1;entryDx=0;entryDy=0;entryPerimeter=0;exitX=1;exitY=0.23;exitDx=0;exitDy=0;exitPerimeter=0;" parent="1" source="3nuBFxr9cyL0pnOWT2aG-6" target="eunGYBZojGxnAnl-epNE-81" edge="1">
                    <mxGeometry x="-0.0182" relative="1" as="geometry">
                        <mxPoint x="306" y="426" as="sourcePoint"/>
                        <mxPoint x="415" y="427.0000000000001" as="targetPoint"/>
                        <mxPoint as="offset"/>
                    </mxGeometry>
                </mxCell>
                <mxCell id="eunGYBZojGxnAnl-epNE-83" value="" style="verticalAlign=bottom;endArrow=block;shadow=0;strokeWidth=1;" parent="1" edge="1">
                    <mxGeometry relative="1" as="geometry">
                        <mxPoint x="302" y="527" as="sourcePoint"/>
                        <mxPoint x="550" y="527" as="targetPoint"/>
                    </mxGeometry>
                </mxCell>
                <mxCell id="eunGYBZojGxnAnl-epNE-87" value="Get AEOB using AEOBResponseID and token" style="text;html=1;resizable=0;autosize=1;align=center;verticalAlign=middle;points=[];fillColor=none;strokeColor=none;rounded=0;fontSize=10;" parent="1" vertex="1">
                    <mxGeometry x="318" y="509" width="215" height="16" as="geometry"/>
                </mxCell>
            </root>
        </mxGraphModel>
    </diagram>
</mxfile>